<svg viewBox="0 0 512 512" xmlns="http://www.w3.org/2000/svg" fill-rule="evenodd" clip-rule="evenodd" stroke-linejoin="round" stroke-miterlimit="2"><path d="M86.522.606c-2.007 1.185-5.348 4.54-9.318 9.407l3.652 6.903c2.57-3.666 5.177-6.977 7.807-9.8l.304-.325-.304.326c-.852.933-3.437 3.955-7.333 9.94 3.755-.185 9.518-.956 14.222-1.756 1.407-7.844-1.37-11.429-1.37-11.429S90.654-1.83 86.521.606h.001z" fill="url(#prefix___Linear1)" fill-rule="nonzero" transform="translate(11 11) scale(3.82811)"/><path d="M295.176 235.312c-1.787.31-3.598.651-5.5.965 0 0-.027 0-.027.027l2.832-.425c.88-.2 1.788-.368 2.695-.567z" fill="#bd202e" fill-rule="nonzero"/><path d="M295.176 235.312c-1.787.31-3.598.651-5.5.965 0 0-.027 0-.027.027l2.832-.425c.88-.2 1.788-.368 2.695-.567z" fill="#bd202e" fill-opacity=".35" fill-rule="nonzero"/><path d="M299.854 212.202s0 .027 0 0c-.026 0-.026 0-.026.027.283-.027.593-.084.88-.142 1.187-.168 2.35-.367 3.484-.65-1.417.256-2.833.509-4.338.765z" fill="#bd202e" fill-rule="nonzero"/><path d="M299.854 212.202s0 .027 0 0c-.026 0-.026 0-.026.027.283-.027.593-.084.88-.142 1.187-.168 2.35-.367 3.484-.65-1.417.256-2.833.509-4.338.765z" fill="#bd202e" fill-opacity=".35" fill-rule="nonzero"/><path d="M70.071 34.76a219.435 219.435 0 013.37-6.081 173.278 173.278 0 013.585-5.97c.067-.112.148-.23.215-.341a143.998 143.998 0 013.607-5.444l-3.651-6.904c-.28.341-.557.684-.83 1.03a157.38 157.38 0 00-3.274 4.23 201.815 201.815 0 00-3.889 5.392 232.63 232.63 0 00-3.703 5.48 216.602 216.602 0 00-3.163 4.978c-.037.06-.074.126-.11.193l4.762 9.407a215.64 215.64 0 013.081-5.97z" fill="url(#prefix___Linear2)" fill-rule="nonzero" transform="translate(11 11) scale(3.82811)"/><path d="M48.383 87.735a411.547 411.547 0 00-1.896 5.296c-.008.022-.015.052-.03.074-.089.252-.185.511-.266.763-.43 1.215-.8 2.311-1.652 4.793 1.4.637 2.526 2.325 3.592 4.236a7.627 7.627 0 00-2.489-5.273c6.911.31 12.867-1.437 15.948-6.489.274-.452.526-.919.755-1.43-1.4 1.778-3.14 2.526-6.407 2.348-.007 0-.014.008-.022.008.008 0 .015-.008.022-.008 4.815-2.155 7.222-4.222 9.363-7.644.504-.814 1-1.696 1.504-2.681-4.208 4.318-9.074 5.548-14.207 4.615l-3.852.422c-.126.326-.237.644-.363.97z" fill="url(#prefix___Linear3)" fill-rule="nonzero" transform="translate(11 11) scale(3.82811)"/><path d="M50.183 79.12c.83-2.147 1.689-4.325 2.563-6.517.848-2.12 1.712-4.234 2.593-6.341a732.783 732.783 0 012.71-6.392c.934-2.17 1.897-4.333 2.882-6.489a353.525 353.525 0 012.948-6.34c.355-.756.726-1.511 1.089-2.26.63-1.296 1.266-2.585 1.91-3.859.038-.066.067-.14.104-.207l-4.762-9.407a6.66 6.66 0 01-.237.378 216.839 216.839 0 00-3.296 5.555 208.17 208.17 0 00-3.223 5.837 244.913 244.913 0 00-2.6 5.044c-.17.34-.333.689-.503 1.03a144.098 144.098 0 00-2.822 6.185 116.41 116.41 0 00-2.54 6.429c-.49 1.34-.927 2.63-1.334 3.874-.333 1.059-.645 2.126-.956 3.185a99.305 99.305 0 00-1.83 7.451l4.786 9.444c.63-1.688 1.281-3.407 1.948-5.14.2-.496.378-.985.57-1.46z" fill="url(#prefix___Linear4)" fill-rule="nonzero" transform="translate(11 11) scale(3.82811)"/><path d="M42.828 76.595c-.6 3.022-1.03 6.03-1.245 9.022l-.022.31c-1.496-2.392-5.488-4.725-5.481-4.703 2.867 4.148 5.037 8.267 5.355 12.31-1.533.312-3.63-.14-6.051-1.029 2.526 2.326 4.422 2.963 5.17 3.14-2.326.149-4.74 1.742-7.178 3.579 3.563-1.452 6.445-2.03 8.504-1.563-3.274 9.258-6.548 19.48-9.83 30.339 1.008-.296 1.608-.978 1.941-1.889.585-1.963 4.46-14.866 10.54-31.806.178-.481.349-.97.526-1.452.045-.14.097-.274.149-.4.637-1.777 1.31-3.592 1.992-5.444.156-.422.311-.844.474-1.266 0-.008.008-.015.008-.023l-4.793-9.444a5.776 5.776 0 01-.06.319h.001z" fill="url(#prefix___Linear5)" fill-rule="nonzero" transform="translate(11 11) scale(3.82811)"/><path d="M67.723 41.5c-.14.282-.274.563-.415.845-.414.851-.83 1.718-1.259 2.607-.46.963-.918 1.94-1.385 2.948-.237.504-.474 1.015-.711 1.533a413.544 413.544 0 00-2.163 4.8 380.93 380.93 0 00-2.748 6.326c-.881 2.088-1.793 4.244-2.696 6.48-.867 2.12-1.74 4.312-2.63 6.563a415.985 415.985 0 00-2.392 6.208c-.037.096-.074.207-.111.303-.8 2.111-1.608 4.282-2.415 6.504-.015.051-.037.096-.052.155l3.852-.422c-.074-.015-.156-.022-.23-.037 4.6-.57 10.726-4.015 14.674-8.259 1.822-1.955 3.474-4.266 5-6.97 1.133-2.007 2.207-4.244 3.229-6.71a98.351 98.351 0 002.563-7.023c-1.06.556-2.267.97-3.6 1.252-.237.052-.474.096-.718.14-.245.045-.49.082-.741.112 0 0 .007 0 .007-.007 4.296-1.652 7-4.837 8.963-8.74-1.126.77-2.963 1.777-5.163 2.258-.377.083-.758.152-1.14.208h.014c1.496-.622 2.748-1.326 3.837-2.148.237-.178.467-.356.674-.548.333-.29.645-.593.956-.904.192-.207.377-.415.563-.63.43-.51.83-1.059 1.2-1.651.11-.186.23-.363.333-.556.148-.274.281-.548.415-.807a43.342 43.342 0 001.459-3.222c.192-.474.355-.904.503-1.319.06-.163.111-.318.163-.474.156-.452.274-.852.37-1.207.149-.534.238-.956.282-1.26-.148.112-.31.23-.504.341-1.296.778-3.518 1.474-5.31 1.808l3.533-.386-3.533.386c-.023.007-.052.007-.082.014-.185.03-.355.06-.54.082l.088-.045-12.095 1.326a.36.36 0 01-.045.126z" fill="url(#prefix___Linear6)" fill-rule="nonzero" transform="translate(11 11) scale(3.82811)"/><path d="M81.337 17.057a181.684 181.684 0 00-3.518 5.651 250.189 250.189 0 00-3.674 6.4 281.332 281.332 0 00-3.289 6.155 332.182 332.182 0 00-3.074 6.111l12.096-1.326c3.526-1.622 5.096-3.081 6.622-5.207.4-.585.815-1.192 1.215-1.83a74.653 74.653 0 003.548-6.2c1.051-2.05 1.977-4.08 2.688-5.917a30.465 30.465 0 001.067-3.2c.222-.837.393-1.637.526-2.4-4.689.807-10.459 1.578-14.207 1.763z" fill="url(#prefix___Linear7)" fill-rule="nonzero" transform="translate(11 11) scale(3.82811)"/><path d="M292.428 235.822c-.938.168-1.876.31-2.837.424.965-.084 1.926-.256 2.833-.424h.004z" fill="#bd202e" fill-rule="nonzero"/><path d="M292.428 235.822c-.938.168-1.876.31-2.837.424.965-.084 1.926-.256 2.833-.424h.004z" fill="#bd202e" fill-opacity=".35" fill-rule="nonzero"/><path d="M73.516 58.729c-.245.044-.49.081-.741.111.252-.022.503-.067.74-.111h.001z" fill="url(#prefix___Linear8)" fill-rule="nonzero" transform="translate(11 11) scale(3.82811)"/><path d="M299.828 212.229c.283-.027.593-.084.88-.142-.287.03-.57.115-.88.142z" fill="#bd202e" fill-rule="nonzero"/><path d="M299.828 212.229c.283-.027.593-.084.88-.142-.287.03-.57.115-.88.142z" fill="#bd202e" fill-opacity=".35" fill-rule="nonzero"/><path d="M75.449 52.566c.074-.007.155-.022.23-.037-.075.008-.149.03-.23.037z" fill="url(#prefix___Linear9)" fill-rule="nonzero" transform="translate(11 11) scale(3.82811)"/><path d="M299.828 212.229c.026 0 .026-.027 0 0 .026-.027.026 0 0 0z" fill="#bd202e" fill-rule="nonzero"/><path d="M299.828 212.229c.026 0 .026-.027 0 0 .026-.027.026 0 0 0z" fill="#bd202e" fill-opacity=".35" fill-rule="nonzero"/><path d="M75.449 52.566c.007 0 .007-.007 0 0 .007-.007.007 0 0 0z" fill="url(#prefix___Linear10)" fill-rule="nonzero" transform="translate(11 11) scale(3.82811)"/><defs><linearGradient id="prefix___Linear1" x1="0" y1="0" x2="1" y2="0" gradientUnits="userSpaceOnUse" gradientTransform="matrix(26.801 -7.451 7.451 26.801 80.277 10.871)"><stop offset="0" stop-color="#f59723"/><stop offset=".31" stop-color="#f69822"/><stop offset=".84" stop-color="#e87726"/><stop offset="1" stop-color="#e87726"/></linearGradient><linearGradient id="prefix___Linear2" x1="0" y1="0" x2="1" y2="0" gradientUnits="userSpaceOnUse" gradientTransform="rotate(-65 113.742 48.617) scale(128.989)"><stop offset="0" stop-color="#9c2063"/><stop offset=".32" stop-color="#9c2063"/><stop offset=".63" stop-color="#c82037"/><stop offset=".75" stop-color="#cc2135"/><stop offset="1" stop-color="#e87726"/></linearGradient><linearGradient id="prefix___Linear3" x1="0" y1="0" x2="1" y2="0" gradientUnits="userSpaceOnUse" gradientTransform="scale(76.865) rotate(-65.001 1.51 .39)"><stop offset="0" stop-color="#282661"/><stop offset=".1" stop-color="#662e8c"/><stop offset=".79" stop-color="#9e2064"/><stop offset=".95" stop-color="#cc2032"/><stop offset="1" stop-color="#cc2032"/></linearGradient><linearGradient id="prefix___Linear4" x1="0" y1="0" x2="1" y2="0" gradientUnits="userSpaceOnUse" gradientTransform="rotate(-65 109.17 43.535) scale(128.989)"><stop offset="0" stop-color="#9c2063"/><stop offset=".32" stop-color="#9c2063"/><stop offset=".63" stop-color="#c82037"/><stop offset=".75" stop-color="#cc2135"/><stop offset="1" stop-color="#e87726"/></linearGradient><linearGradient id="prefix___Linear5" x1="0" y1="0" x2="1" y2="0" gradientUnits="userSpaceOnUse" gradientTransform="rotate(-65 105.84 35.277) scale(67.788)"><stop offset="0" stop-color="#282661"/><stop offset=".1" stop-color="#662e8c"/><stop offset=".79" stop-color="#9e2064"/><stop offset=".95" stop-color="#cc2032"/><stop offset="1" stop-color="#cc2032"/></linearGradient><linearGradient id="prefix___Linear6" x1="0" y1="0" x2="1" y2="0" gradientUnits="userSpaceOnUse" gradientTransform="rotate(-65.001 119.65 36.858) scale(128.989)"><stop offset="0" stop-color="#9c2063"/><stop offset=".32" stop-color="#9c2063"/><stop offset=".63" stop-color="#c82037"/><stop offset=".75" stop-color="#cc2135"/><stop offset="1" stop-color="#e87726"/></linearGradient><linearGradient id="prefix___Linear7" x1="0" y1="0" x2="1" y2="0" gradientUnits="userSpaceOnUse" gradientTransform="rotate(-65 123.127 43.473) scale(128.989)"><stop offset="0" stop-color="#9c2063"/><stop offset=".32" stop-color="#9c2063"/><stop offset=".63" stop-color="#c82037"/><stop offset=".75" stop-color="#cc2135"/><stop offset="1" stop-color="#e87726"/></linearGradient><linearGradient id="prefix___Linear8" x1="0" y1="0" x2="1" y2="0" gradientUnits="userSpaceOnUse" gradientTransform="rotate(-65.001 122.761 34.877) scale(128.989)"><stop offset="0" stop-color="#9c2063"/><stop offset=".32" stop-color="#9c2063"/><stop offset=".63" stop-color="#c82037"/><stop offset=".75" stop-color="#cc2135"/><stop offset="1" stop-color="#e87726"/></linearGradient><linearGradient id="prefix___Linear9" x1="0" y1="0" x2="1" y2="0" gradientUnits="userSpaceOnUse" gradientTransform="rotate(-65 122.41 35.101) scale(128.99)"><stop offset="0" stop-color="#9c2063"/><stop offset=".32" stop-color="#9c2063"/><stop offset=".63" stop-color="#c82037"/><stop offset=".75" stop-color="#cc2135"/><stop offset="1" stop-color="#e87726"/></linearGradient><linearGradient id="prefix___Linear10" x1="0" y1="0" x2="1" y2="0" gradientUnits="userSpaceOnUse" gradientTransform="rotate(-65 86.104 -21.727) scale(28.51)"><stop offset="0" stop-color="#9c2063"/><stop offset=".32" stop-color="#9c2063"/><stop offset=".63" stop-color="#c82037"/><stop offset=".75" stop-color="#cc2135"/><stop offset="1" stop-color="#e87726"/></linearGradient></defs></svg>